# xmcd CD database file generated by OrangeCD 6.0
#
# Track frame offsets:
#	150
#	15450
#	31948
#	43650
#	62175
#	73200
#	87150
#	100200
#	114975
#	133948
#	150225
#	164175
#	182400
#
# Disc length: 2743 seconds
#
# Revision: 3
# Processed by: cddbd v1.5.2PL0 Copyright (c) Steve Scherf et al.
# Submitted via: OrangeCD 6.0
#
DISCID=a90ab50d
DTITLE=John Hammond - John Hammond
DYEAR=1900
DGENRE=blues
TTITLE0=Two Trains Running
TTITLE1=Give Me a 32-20
TTITLE2=Maybelline
TTITLE3=Louise
TTITLE4=This Train
TTITLE5=East St. Louis Blues
TTITLE6=Going Back to Florida
TTITLE7=Mean Old Frisco
TTITLE8=I Got a Letter This Morning
TTITLE9=Alabama Woman Blues
TTITLE10=The Hoochie Koochie Man
TTITLE11=Crossroads Blues
TTITLE12=See That My Grave Is Kept Clean
EXTD=
EXTT0=
EXTT1=
EXTT2=
EXTT3=
EXTT4=
EXTT5=
EXTT6=
EXTT7=
EXTT8=
EXTT9=
EXTT10=
EXTT11=
EXTT12=
PLAYORDER=
